<?xml version="1.0" standalone="no"?>
<!DOCTYPE svg PUBLIC "-//W3C//DTD SVG 20010904//EN"
 "http://www.w3.org/TR/2001/REC-SVG-20010904/DTD/svg10.dtd">
<svg version="1.0" xmlns="http://www.w3.org/2000/svg"
 width="512.000000pt" height="512.000000pt" viewBox="0 0 512.000000 512.000000"
 preserveAspectRatio="xMidYMid meet">

<g transform="translate(0.000000,512.000000) scale(0.100000,-0.100000)"
fill="#000000" stroke="none">
<path d="M2480 4464 c-44 -19 -933 -904 -961 -956 -26 -50 -25 -136 1 -187 53
-105 179 -146 285 -94 17 8 193 178 393 376 l362 362 363 -362 c199 -198 376
-368 392 -376 107 -53 238 -8 286 97 25 54 24 136 0 184 -29 55 -917 938 -963
957 -47 19 -112 19 -158 -1z"/>
<path d="M1615 1901 c-72 -32 -125 -113 -125 -191 0 -83 0 -83 483 -568 254
-255 474 -470 489 -478 41 -21 108 -28 158 -14 41 10 89 55 503 468 252 251
467 474 478 494 12 23 19 57 19 90 -1 162 -161 262 -305 191 -16 -8 -193 -178
-392 -376 l-363 -362 -367 367 c-248 248 -380 372 -405 383 -50 20 -124 19
-173 -4z"/>
</g>
</svg>
