<?xml version="1.0" standalone="no"?>
<!DOCTYPE svg PUBLIC "-//W3C//DTD SVG 20010904//EN"
 "http://www.w3.org/TR/2001/REC-SVG-20010904/DTD/svg10.dtd">
<svg version="1.0" xmlns="http://www.w3.org/2000/svg"
 width="512.000000pt" height="512.000000pt" viewBox="0 0 512.000000 512.000000"
 preserveAspectRatio="xMidYMid meet">

<g transform="translate(0.000000,512.000000) scale(0.100000,-0.100000)"
fill="#000000" stroke="none">
<path d="M2605 4570 c-22 -4 -59 -16 -83 -25 -24 -10 -314 -224 -645 -476
l-601 -459 -226 0 c-168 0 -240 -4 -283 -15 -136 -35 -236 -114 -294 -233
l-38 -76 -3 -730 c-3 -805 -4 -788 60 -889 59 -92 174 -173 279 -196 24 -5
150 -13 279 -16 l235 -7 569 -422 c313 -231 588 -431 611 -443 138 -72 324
-37 433 82 95 104 87 -79 90 1845 2 1164 -1 1717 -8 1764 -14 92 -39 145 -95
205 -71 75 -181 112 -280 91z"/>
<path d="M3561 3179 c-18 -6 -54 -31 -80 -57 -71 -71 -87 -160 -43 -247 8 -16
81 -98 163 -180 l149 -151 -146 -144 c-80 -80 -155 -163 -166 -185 -41 -79
-22 -191 44 -252 55 -51 166 -69 231 -37 18 9 101 84 184 167 l152 151 158
-155 c174 -172 194 -184 294 -177 110 8 189 93 189 206 0 30 -8 70 -17 90 -9
21 -84 106 -167 190 l-150 153 151 152 c83 84 159 167 168 186 27 54 17 149
-21 203 -41 60 -122 101 -186 94 -75 -8 -115 -36 -268 -190 l-144 -145 -152
149 c-188 186 -234 210 -343 179z"/>
</g>
</svg>
