<?xml version="1.0" standalone="no"?>
<!DOCTYPE svg PUBLIC "-//W3C//DTD SVG 20010904//EN"
 "http://www.w3.org/TR/2001/REC-SVG-20010904/DTD/svg10.dtd">
<svg version="1.0" xmlns="http://www.w3.org/2000/svg"
 width="512.000000pt" height="512.000000pt" viewBox="0 0 512.000000 512.000000"
 preserveAspectRatio="xMidYMid meet">

<g transform="translate(0.000000,512.000000) scale(0.100000,-0.100000)"
fill="#000000" stroke="none">
<path d="M382 4661 c-61 -21 -114 -61 -159 -120 -68 -88 -63 46 -61 -2001 l3
-1855 22 -47 c69 -149 240 -230 394 -185 40 12 387 234 1389 887 734 478 1358
890 1387 915 37 32 63 68 90 122 37 74 38 80 38 183 0 103 -1 109 -38 183 -27
54 -53 90 -90 122 -89 77 -2715 1784 -2771 1800 -66 20 -139 18 -204 -4z"/>
<path d="M4092 4623 c-18 -9 -45 -32 -60 -51 l-27 -35 -3 -1965 c-2 -2188 -8
-2003 66 -2060 l35 -27 377 0 377 0 35 27 c74 57 68 -126 68 2048 0 2174 6
1991 -68 2048 l-35 27 -366 2 c-324 3 -370 1 -399 -14z"/>
</g>
</svg>
