<?xml version="1.0" standalone="no"?>
<!DOCTYPE svg PUBLIC "-//W3C//DTD SVG 20010904//EN"
 "http://www.w3.org/TR/2001/REC-SVG-20010904/DTD/svg10.dtd">
<svg version="1.0" xmlns="http://www.w3.org/2000/svg"
 width="512.000000pt" height="512.000000pt" viewBox="0 0 512.000000 512.000000"
 preserveAspectRatio="xMidYMid meet">

<g transform="translate(0.000000,512.000000) scale(0.100000,-0.100000)"
fill="#000000" stroke="none">
<path d="M4525 4662 c-58 -21 -2685 -1730 -2762 -1797 -37 -33 -63 -67 -90
-122 -37 -74 -38 -80 -38 -183 0 -103 1 -109 38 -183 27 -55 53 -89 90 -122
87 -75 2705 -1777 2767 -1798 153 -53 333 28 403 181 l22 47 0 1875 0 1875
-28 56 c-32 67 -100 132 -165 162 -66 28 -172 33 -237 9z"/>
<path d="M252 4623 c-18 -9 -45 -32 -60 -51 l-27 -35 -3 -1965 c-2 -2188 -8
-2003 66 -2060 l35 -27 377 0 377 0 35 27 c74 57 68 -126 68 2048 0 2174 6
1991 -68 2048 l-35 27 -366 2 c-324 3 -370 1 -399 -14z"/>
</g>
</svg>
